<svg version="1.1" viewBox="0.0 0.0 256.0 256.0" fill="none" stroke="none" stroke-linecap="square" stroke-miterlimit="10" xmlns:xlink="http://www.w3.org/1999/xlink" xmlns="http://www.w3.org/2000/svg"><clipPath id="g3688582f83c_0_73.0"><path d="m0 0l256.0 0l0 256.0l-256.0 0l0 -256.0z" clip-rule="nonzero"/></clipPath><g clip-path="url(#g3688582f83c_0_73.0)"><path fill="#ffffff" d="m0 0l256.0 0l0 256.0l-256.0 0z" fill-rule="evenodd"/><path fill="#d9d9d9" d="m0 0l256.0 0l0 256.0l-256.0 0z" fill-rule="evenodd"/><path stroke="#000000" stroke-width="12.0" stroke-linejoin="round" stroke-linecap="butt" d="m0 0l256.0 0l0 256.0l-256.0 0z" fill-rule="evenodd"/><path fill="#0000ff" d="m0 95.2126l28.440945 0l0 65.5748l-28.440945 0z" fill-rule="evenodd"/><path stroke="#000000" stroke-width="3.0" stroke-linejoin="round" stroke-linecap="butt" d="m0 95.2126l28.440945 0l0 65.5748l-28.440945 0z" fill-rule="evenodd"/><path fill="#eeeeee" d="m37.527557 128.0l0 0c0 -49.966553 40.50589 -90.47244 90.47244 -90.47244l0 0c23.994781 0 47.006805 9.531891 63.97368 26.498764c16.966873 16.966873 26.498764 39.978897 26.498764 63.97368l0 0c0 49.966553 -40.50589 90.47244 -90.47244 90.47244l0 0c-49.966553 0 -90.47244 -40.50589 -90.47244 -90.47244z" fill-rule="evenodd"/><path fill="#000000" fill-opacity="0.0" d="m64.02632 64.02632l127.94736 127.94736m0 -127.94736l-127.94736 127.94736" fill-rule="evenodd"/><path fill="#000000" fill-opacity="0.0" d="m37.527557 128.0l0 0c0 -49.966553 40.50589 -90.47244 90.47244 -90.47244l0 0c23.994781 0 47.006805 9.531891 63.97368 26.498764c16.966873 16.966873 26.498764 39.978897 26.498764 63.97368l0 0c0 49.966553 -40.50589 90.47244 -90.47244 90.47244l0 0c-49.966553 0 -90.47244 -40.50589 -90.47244 -90.47244z" fill-rule="evenodd"/><path stroke="#595959" stroke-width="1.0" stroke-linejoin="round" stroke-linecap="butt" d="m64.02632 64.02632l127.94736 127.94736m0 -127.94736l-127.94736 127.94736" fill-rule="evenodd"/><path stroke="#595959" stroke-width="1.0" stroke-linejoin="round" stroke-linecap="butt" d="m37.527557 128.0l0 0c0 -49.966553 40.50589 -90.47244 90.47244 -90.47244l0 0c23.994781 0 47.006805 9.531891 63.97368 26.498764c16.966873 16.966873 26.498764 39.978897 26.498764 63.97368l0 0c0 49.966553 -40.50589 90.47244 -90.47244 90.47244l0 0c-49.966553 0 -90.47244 -40.50589 -90.47244 -90.47244z" fill-rule="evenodd"/><path fill="#eeeeee" d="m37.527557 37.527557l180.94489 0l0 180.94489l-180.94489 0z" fill-rule="evenodd"/><path stroke="#595959" stroke-width="1.0" stroke-linejoin="round" stroke-linecap="butt" d="m37.527557 37.527557l180.94489 0l0 180.94489l-180.94489 0z" fill-rule="evenodd"/><path fill="#0000ff" d="m47.622047 127.779526l80.37795 -80.37795l80.37796 80.37795l-40.18898 0l0 80.81889l-80.37796 0l0 -80.81889z" fill-rule="evenodd"/><path stroke="#000000" stroke-width="3.0" stroke-linejoin="round" stroke-linecap="butt" d="m47.622047 127.779526l80.37795 -80.37795l80.37796 80.37795l-40.18898 0l0 80.81889l-80.37796 0l0 -80.81889z" fill-rule="evenodd"/></g></svg>