<svg version="1.1" viewBox="0.0 0.0 256.0 256.0" fill="none" stroke="none" stroke-linecap="square" stroke-miterlimit="10" xmlns:xlink="http://www.w3.org/1999/xlink" xmlns="http://www.w3.org/2000/svg"><clipPath id="p.0"><path d="m0 0l256.0 0l0 256.0l-256.0 0l0 -256.0z" clip-rule="nonzero"/></clipPath><g clip-path="url(#p.0)"><path fill="#000000" fill-opacity="0.0" d="m0 0l256.0 0l0 256.0l-256.0 0z" fill-rule="evenodd"/><path fill="#d9d9d9" d="m0 0l256.0 0l0 256.0l-256.0 0z" fill-rule="evenodd"/><path stroke="#000000" stroke-width="12.0" stroke-linejoin="round" stroke-linecap="butt" d="m0 0l256.0 0l0 256.0l-256.0 0z" fill-rule="evenodd"/><path fill="#434343" d="m34.540684 41.942333l186.92914 0l0 172.12598l-186.92914 0z" fill-rule="evenodd"/><path stroke="#000000" stroke-width="4.0" stroke-linejoin="round" stroke-linecap="butt" d="m34.540684 41.942333l186.92914 0l0 172.12598l-186.92914 0z" fill-rule="evenodd"/><path fill="#d9d9d9" d="m34.540684 148.49081l186.92914 0l0 26.078735l-186.92914 0z" fill-rule="evenodd"/><path stroke="#000000" stroke-width="2.0" stroke-linejoin="round" stroke-linecap="butt" d="m34.540684 148.49081l186.92914 0l0 26.078735l-186.92914 0z" fill-rule="evenodd"/><path fill="#d9d9d9" d="m34.535435 114.968506l186.92914 0l0 26.078735l-186.92914 0z" fill-rule="evenodd"/><path stroke="#000000" stroke-width="2.0" stroke-linejoin="round" stroke-linecap="butt" d="m34.535435 114.968506l186.92914 0l0 26.078735l-186.92914 0z" fill-rule="evenodd"/><path fill="#d9d9d9" d="m34.540684 182.01312l186.92914 0l0 26.078735l-186.92914 0z" fill-rule="evenodd"/><path stroke="#000000" stroke-width="2.0" stroke-linejoin="round" stroke-linecap="butt" d="m34.540684 182.01312l186.92914 0l0 26.078735l-186.92914 0z" fill-rule="evenodd"/><path fill="#d9d9d9" d="m34.53806 81.4462l186.92914 0l0 26.078735l-186.92914 0z" fill-rule="evenodd"/><path stroke="#000000" stroke-width="2.0" stroke-linejoin="round" stroke-linecap="butt" d="m34.53806 81.4462l186.92914 0l0 26.078735l-186.92914 0z" fill-rule="evenodd"/><path fill="#ffffff" d="m50.67454 173.81364l9.482967 -25.070862l9.477661 0l-9.482967 25.070862z" fill-rule="evenodd"/><path stroke="#000000" stroke-width="2.0" stroke-linejoin="round" stroke-linecap="butt" d="m50.67454 173.81364l9.482967 -25.070862l9.477661 0l-9.482967 25.070862z" fill-rule="evenodd"/><path fill="#ffffff" d="m69.63517 173.81364l9.482971 -25.070862l9.477661 0l-9.482971 25.070862z" fill-rule="evenodd"/><path stroke="#000000" stroke-width="2.0" stroke-linejoin="round" stroke-linecap="butt" d="m69.63517 173.81364l9.482971 -25.070862l9.477661 0l-9.482971 25.070862z" fill-rule="evenodd"/><path fill="#ffffff" d="m88.5958 173.81364l9.482971 -25.070862l9.4776535 0l-9.482964 25.070862z" fill-rule="evenodd"/><path stroke="#000000" stroke-width="2.0" stroke-linejoin="round" stroke-linecap="butt" d="m88.5958 173.81364l9.482971 -25.070862l9.4776535 0l-9.482964 25.070862z" fill-rule="evenodd"/><path fill="#ffffff" d="m107.55643 173.81364l9.482971 -25.070862l9.477661 0l-9.482971 25.070862z" fill-rule="evenodd"/><path stroke="#000000" stroke-width="2.0" stroke-linejoin="round" stroke-linecap="butt" d="m107.55643 173.81364l9.482971 -25.070862l9.477661 0l-9.482971 25.070862z" fill-rule="evenodd"/><path fill="#ffffff" d="m221.3202 173.81364l9.482971 -25.070862l9.477661 0l-9.482971 25.070862z" fill-rule="evenodd"/><path stroke="#000000" stroke-width="2.0" stroke-linejoin="round" stroke-linecap="butt" d="m221.3202 173.81364l9.482971 -25.070862l9.477661 0l-9.482971 25.070862z" fill-rule="evenodd"/><path fill="#ffffff" d="m31.713911 173.81364l9.482969 -25.070862l9.477661 0l-9.482971 25.070862z" fill-rule="evenodd"/><path stroke="#000000" stroke-width="2.0" stroke-linejoin="round" stroke-linecap="butt" d="m31.713911 173.81364l9.482969 -25.070862l9.477661 0l-9.482971 25.070862z" fill-rule="evenodd"/><path fill="#ffffff" d="m126.51706 173.81364l9.482971 -25.070862l9.477661 0l-9.482971 25.070862z" fill-rule="evenodd"/><path stroke="#000000" stroke-width="2.0" stroke-linejoin="round" stroke-linecap="butt" d="m126.51706 173.81364l9.482971 -25.070862l9.477661 0l-9.482971 25.070862z" fill-rule="evenodd"/><path fill="#ffffff" d="m145.47769 173.81364l9.482971 -25.070862l9.477661 0l-9.482971 25.070862z" fill-rule="evenodd"/><path stroke="#000000" stroke-width="2.0" stroke-linejoin="round" stroke-linecap="butt" d="m145.47769 173.81364l9.482971 -25.070862l9.477661 0l-9.482971 25.070862z" fill-rule="evenodd"/><path fill="#ffffff" d="m164.43832 173.81364l9.482971 -25.070862l9.477661 0l-9.482971 25.070862z" fill-rule="evenodd"/><path stroke="#000000" stroke-width="2.0" stroke-linejoin="round" stroke-linecap="butt" d="m164.43832 173.81364l9.482971 -25.070862l9.477661 0l-9.482971 25.070862z" fill-rule="evenodd"/><path fill="#ffffff" d="m183.39896 173.81364l9.482956 -25.070862l9.477661 0l-9.482956 25.070862z" fill-rule="evenodd"/><path stroke="#000000" stroke-width="2.0" stroke-linejoin="round" stroke-linecap="butt" d="m183.39896 173.81364l9.482956 -25.070862l9.477661 0l-9.482956 25.070862z" fill-rule="evenodd"/><path fill="#ffffff" d="m202.35957 173.81364l9.482971 -25.070862l9.477661 0l-9.482971 25.070862z" fill-rule="evenodd"/><path stroke="#000000" stroke-width="2.0" stroke-linejoin="round" stroke-linecap="butt" d="m202.35957 173.81364l9.482971 -25.070862l9.477661 0l-9.482971 25.070862z" fill-rule="evenodd"/><path fill="#ffffff" d="m50.67454 140.79527l9.482967 -25.070862l9.477661 0l-9.482967 25.070862z" fill-rule="evenodd"/><path stroke="#000000" stroke-width="2.0" stroke-linejoin="round" stroke-linecap="butt" d="m50.67454 140.79527l9.482967 -25.070862l9.477661 0l-9.482967 25.070862z" fill-rule="evenodd"/><path fill="#ffffff" d="m69.63517 140.79527l9.482971 -25.070862l9.477661 0l-9.482971 25.070862z" fill-rule="evenodd"/><path stroke="#000000" stroke-width="2.0" stroke-linejoin="round" stroke-linecap="butt" d="m69.63517 140.79527l9.482971 -25.070862l9.477661 0l-9.482971 25.070862z" fill-rule="evenodd"/><path fill="#ffffff" d="m88.5958 140.79527l9.482971 -25.070862l9.4776535 0l-9.482964 25.070862z" fill-rule="evenodd"/><path stroke="#000000" stroke-width="2.0" stroke-linejoin="round" stroke-linecap="butt" d="m88.5958 140.79527l9.482971 -25.070862l9.4776535 0l-9.482964 25.070862z" fill-rule="evenodd"/><path fill="#ffffff" d="m107.55643 140.79527l9.482971 -25.070862l9.477661 0l-9.482971 25.070862z" fill-rule="evenodd"/><path stroke="#000000" stroke-width="2.0" stroke-linejoin="round" stroke-linecap="butt" d="m107.55643 140.79527l9.482971 -25.070862l9.477661 0l-9.482971 25.070862z" fill-rule="evenodd"/><path fill="#ffffff" d="m221.3202 140.79527l9.482971 -25.070862l9.477661 0l-9.482971 25.070862z" fill-rule="evenodd"/><path stroke="#000000" stroke-width="2.0" stroke-linejoin="round" stroke-linecap="butt" d="m221.3202 140.79527l9.482971 -25.070862l9.477661 0l-9.482971 25.070862z" fill-rule="evenodd"/><path fill="#ffffff" d="m31.713911 140.79527l9.482969 -25.070862l9.477661 0l-9.482971 25.070862z" fill-rule="evenodd"/><path stroke="#000000" stroke-width="2.0" stroke-linejoin="round" stroke-linecap="butt" d="m31.713911 140.79527l9.482969 -25.070862l9.477661 0l-9.482971 25.070862z" fill-rule="evenodd"/><path fill="#ffffff" d="m126.51706 140.79527l9.482971 -25.070862l9.477661 0l-9.482971 25.070862z" fill-rule="evenodd"/><path stroke="#000000" stroke-width="2.0" stroke-linejoin="round" stroke-linecap="butt" d="m126.51706 140.79527l9.482971 -25.070862l9.477661 0l-9.482971 25.070862z" fill-rule="evenodd"/><path fill="#ffffff" d="m145.47769 140.79527l9.482971 -25.070862l9.477661 0l-9.482971 25.070862z" fill-rule="evenodd"/><path stroke="#000000" stroke-width="2.0" stroke-linejoin="round" stroke-linecap="butt" d="m145.47769 140.79527l9.482971 -25.070862l9.477661 0l-9.482971 25.070862z" fill-rule="evenodd"/><path fill="#ffffff" d="m164.43832 140.79527l9.482971 -25.070862l9.477661 0l-9.482971 25.070862z" fill-rule="evenodd"/><path stroke="#000000" stroke-width="2.0" stroke-linejoin="round" stroke-linecap="butt" d="m164.43832 140.79527l9.482971 -25.070862l9.477661 0l-9.482971 25.070862z" fill-rule="evenodd"/><path fill="#ffffff" d="m183.39896 140.79527l9.482956 -25.070862l9.477661 0l-9.482956 25.070862z" fill-rule="evenodd"/><path stroke="#000000" stroke-width="2.0" stroke-linejoin="round" stroke-linecap="butt" d="m183.39896 140.79527l9.482956 -25.070862l9.477661 0l-9.482956 25.070862z" fill-rule="evenodd"/><path fill="#ffffff" d="m202.35957 140.79527l9.482971 -25.070862l9.477661 0l-9.482971 25.070862z" fill-rule="evenodd"/><path stroke="#000000" stroke-width="2.0" stroke-linejoin="round" stroke-linecap="butt" d="m202.35957 140.79527l9.482971 -25.070862l9.477661 0l-9.482971 25.070862z" fill-rule="evenodd"/><path fill="#ffffff" d="m46.88714 107.020996l9.482971 -25.070862l9.477661 0l-9.482971 25.070862z" fill-rule="evenodd"/><path stroke="#000000" stroke-width="2.0" stroke-linejoin="round" stroke-linecap="butt" d="m46.88714 107.020996l9.482971 -25.070862l9.477661 0l-9.482971 25.070862z" fill-rule="evenodd"/><path fill="#ffffff" d="m65.84777 107.020996l9.482971 -25.070862l9.4776535 0l-9.482964 25.070862z" fill-rule="evenodd"/><path stroke="#000000" stroke-width="2.0" stroke-linejoin="round" stroke-linecap="butt" d="m65.84777 107.020996l9.482971 -25.070862l9.4776535 0l-9.482964 25.070862z" fill-rule="evenodd"/><path fill="#ffffff" d="m84.808395 107.020996l9.482971 -25.070862l9.477661 0l-9.482971 25.070862z" fill-rule="evenodd"/><path stroke="#000000" stroke-width="2.0" stroke-linejoin="round" stroke-linecap="butt" d="m84.808395 107.020996l9.482971 -25.070862l9.477661 0l-9.482971 25.070862z" fill-rule="evenodd"/><path fill="#ffffff" d="m103.76903 107.020996l9.482971 -25.070862l9.477661 0l-9.482971 25.070862z" fill-rule="evenodd"/><path stroke="#000000" stroke-width="2.0" stroke-linejoin="round" stroke-linecap="butt" d="m103.76903 107.020996l9.482971 -25.070862l9.477661 0l-9.482971 25.070862z" fill-rule="evenodd"/><path fill="#ffffff" d="m217.5328 107.020996l9.482971 -25.070862l9.477661 0l-9.482971 25.070862z" fill-rule="evenodd"/><path stroke="#000000" stroke-width="2.0" stroke-linejoin="round" stroke-linecap="butt" d="m217.5328 107.020996l9.482971 -25.070862l9.477661 0l-9.482971 25.070862z" fill-rule="evenodd"/><path fill="#ffffff" d="m27.92651 107.020996l9.482967 -25.070862l9.477661 0l-9.482967 25.070862z" fill-rule="evenodd"/><path stroke="#000000" stroke-width="2.0" stroke-linejoin="round" stroke-linecap="butt" d="m27.92651 107.020996l9.482967 -25.070862l9.477661 0l-9.482967 25.070862z" fill-rule="evenodd"/><path fill="#ffffff" d="m122.72966 107.020996l9.482971 -25.070862l9.477661 0l-9.482971 25.070862z" fill-rule="evenodd"/><path stroke="#000000" stroke-width="2.0" stroke-linejoin="round" stroke-linecap="butt" d="m122.72966 107.020996l9.482971 -25.070862l9.477661 0l-9.482971 25.070862z" fill-rule="evenodd"/><path fill="#ffffff" d="m141.69029 107.020996l9.482971 -25.070862l9.477661 0l-9.482971 25.070862z" fill-rule="evenodd"/><path stroke="#000000" stroke-width="2.0" stroke-linejoin="round" stroke-linecap="butt" d="m141.69029 107.020996l9.482971 -25.070862l9.477661 0l-9.482971 25.070862z" fill-rule="evenodd"/><path fill="#ffffff" d="m160.65092 107.020996l9.482956 -25.070862l9.477661 0l-9.482956 25.070862z" fill-rule="evenodd"/><path stroke="#000000" stroke-width="2.0" stroke-linejoin="round" stroke-linecap="butt" d="m160.65092 107.020996l9.482956 -25.070862l9.477661 0l-9.482956 25.070862z" fill-rule="evenodd"/><path fill="#ffffff" d="m179.61154 107.020996l9.482971 -25.070862l9.477661 0l-9.482971 25.070862z" fill-rule="evenodd"/><path stroke="#000000" stroke-width="2.0" stroke-linejoin="round" stroke-linecap="butt" d="m179.61154 107.020996l9.482971 -25.070862l9.477661 0l-9.482971 25.070862z" fill-rule="evenodd"/><path fill="#ffffff" d="m198.57217 107.020996l9.482971 -25.070862l9.477661 0l-9.482971 25.070862z" fill-rule="evenodd"/><path stroke="#000000" stroke-width="2.0" stroke-linejoin="round" stroke-linecap="butt" d="m198.57217 107.020996l9.482971 -25.070862l9.477661 0l-9.482971 25.070862z" fill-rule="evenodd"/><path fill="#d9d9d9" d="m34.53281 47.923885l186.92914 0l0 26.07874l-186.92914 0z" fill-rule="evenodd"/><path stroke="#000000" stroke-width="2.0" stroke-linejoin="round" stroke-linecap="butt" d="m34.53281 47.923885l186.92914 0l0 26.07874l-186.92914 0z" fill-rule="evenodd"/><path fill="#ffffff" d="m50.682415 207.08398l9.482967 -25.070862l9.477661 0l-9.482967 25.070862z" fill-rule="evenodd"/><path stroke="#000000" stroke-width="2.0" stroke-linejoin="round" stroke-linecap="butt" d="m50.682415 207.08398l9.482967 -25.070862l9.477661 0l-9.482967 25.070862z" fill-rule="evenodd"/><path fill="#ffffff" d="m69.64304 207.08398l9.482971 -25.070862l9.477661 0l-9.482971 25.070862z" fill-rule="evenodd"/><path stroke="#000000" stroke-width="2.0" stroke-linejoin="round" stroke-linecap="butt" d="m69.64304 207.08398l9.482971 -25.070862l9.477661 0l-9.482971 25.070862z" fill-rule="evenodd"/><path fill="#ffffff" d="m88.603676 207.08398l9.482971 -25.070862l9.477661 0l-9.482971 25.070862z" fill-rule="evenodd"/><path stroke="#000000" stroke-width="2.0" stroke-linejoin="round" stroke-linecap="butt" d="m88.603676 207.08398l9.482971 -25.070862l9.477661 0l-9.482971 25.070862z" fill-rule="evenodd"/><path fill="#ffffff" d="m107.56431 207.08398l9.482964 -25.070862l9.477661 0l-9.482971 25.070862z" fill-rule="evenodd"/><path stroke="#000000" stroke-width="2.0" stroke-linejoin="round" stroke-linecap="butt" d="m107.56431 207.08398l9.482964 -25.070862l9.477661 0l-9.482971 25.070862z" fill-rule="evenodd"/><path fill="#ffffff" d="m221.32808 207.08398l9.482971 -25.070862l9.477661 0l-9.482971 25.070862z" fill-rule="evenodd"/><path stroke="#000000" stroke-width="2.0" stroke-linejoin="round" stroke-linecap="butt" d="m221.32808 207.08398l9.482971 -25.070862l9.477661 0l-9.482971 25.070862z" fill-rule="evenodd"/><path fill="#ffffff" d="m31.721785 207.08398l9.482969 -25.070862l9.477661 0l-9.482971 25.070862z" fill-rule="evenodd"/><path stroke="#000000" stroke-width="2.0" stroke-linejoin="round" stroke-linecap="butt" d="m31.721785 207.08398l9.482969 -25.070862l9.477661 0l-9.482971 25.070862z" fill-rule="evenodd"/><path fill="#ffffff" d="m126.52493 207.08398l9.482971 -25.070862l9.477661 0l-9.482971 25.070862z" fill-rule="evenodd"/><path stroke="#000000" stroke-width="2.0" stroke-linejoin="round" stroke-linecap="butt" d="m126.52493 207.08398l9.482971 -25.070862l9.477661 0l-9.482971 25.070862z" fill-rule="evenodd"/><path fill="#ffffff" d="m145.48557 207.08398l9.482971 -25.070862l9.477661 0l-9.482971 25.070862z" fill-rule="evenodd"/><path stroke="#000000" stroke-width="2.0" stroke-linejoin="round" stroke-linecap="butt" d="m145.48557 207.08398l9.482971 -25.070862l9.477661 0l-9.482971 25.070862z" fill-rule="evenodd"/><path fill="#ffffff" d="m164.4462 207.08398l9.482971 -25.070862l9.477661 0l-9.482971 25.070862z" fill-rule="evenodd"/><path stroke="#000000" stroke-width="2.0" stroke-linejoin="round" stroke-linecap="butt" d="m164.4462 207.08398l9.482971 -25.070862l9.477661 0l-9.482971 25.070862z" fill-rule="evenodd"/><path fill="#ffffff" d="m183.40683 207.08398l9.482971 -25.070862l9.477646 0l-9.482956 25.070862z" fill-rule="evenodd"/><path stroke="#000000" stroke-width="2.0" stroke-linejoin="round" stroke-linecap="butt" d="m183.40683 207.08398l9.482971 -25.070862l9.477646 0l-9.482956 25.070862z" fill-rule="evenodd"/><path fill="#ffffff" d="m202.36745 207.08398l9.482971 -25.070862l9.477661 0l-9.482971 25.070862z" fill-rule="evenodd"/><path stroke="#000000" stroke-width="2.0" stroke-linejoin="round" stroke-linecap="butt" d="m202.36745 207.08398l9.482971 -25.070862l9.477661 0l-9.482971 25.070862z" fill-rule="evenodd"/><path fill="#ffffff" d="m46.88714 74.002625l9.482971 -25.070866l9.477661 0l-9.482971 25.070866z" fill-rule="evenodd"/><path stroke="#000000" stroke-width="2.0" stroke-linejoin="round" stroke-linecap="butt" d="m46.88714 74.002625l9.482971 -25.070866l9.477661 0l-9.482971 25.070866z" fill-rule="evenodd"/><path fill="#ffffff" d="m65.84777 74.002625l9.482971 -25.070866l9.4776535 0l-9.482964 25.070866z" fill-rule="evenodd"/><path stroke="#000000" stroke-width="2.0" stroke-linejoin="round" stroke-linecap="butt" d="m65.84777 74.002625l9.482971 -25.070866l9.4776535 0l-9.482964 25.070866z" fill-rule="evenodd"/><path fill="#ffffff" d="m84.808395 74.002625l9.482971 -25.070866l9.477661 0l-9.482971 25.070866z" fill-rule="evenodd"/><path stroke="#000000" stroke-width="2.0" stroke-linejoin="round" stroke-linecap="butt" d="m84.808395 74.002625l9.482971 -25.070866l9.477661 0l-9.482971 25.070866z" fill-rule="evenodd"/><path fill="#ffffff" d="m103.76903 74.002625l9.482971 -25.070866l9.477661 0l-9.482971 25.070866z" fill-rule="evenodd"/><path stroke="#000000" stroke-width="2.0" stroke-linejoin="round" stroke-linecap="butt" d="m103.76903 74.002625l9.482971 -25.070866l9.477661 0l-9.482971 25.070866z" fill-rule="evenodd"/><path fill="#ffffff" d="m217.5328 74.002625l9.482971 -25.070866l9.477661 0l-9.482971 25.070866z" fill-rule="evenodd"/><path stroke="#000000" stroke-width="2.0" stroke-linejoin="round" stroke-linecap="butt" d="m217.5328 74.002625l9.482971 -25.070866l9.477661 0l-9.482971 25.070866z" fill-rule="evenodd"/><path fill="#ffffff" d="m27.92651 74.002625l9.482967 -25.070866l9.477661 0l-9.482967 25.070866z" fill-rule="evenodd"/><path stroke="#000000" stroke-width="2.0" stroke-linejoin="round" stroke-linecap="butt" d="m27.92651 74.002625l9.482967 -25.070866l9.477661 0l-9.482967 25.070866z" fill-rule="evenodd"/><path fill="#ffffff" d="m122.72966 74.002625l9.482971 -25.070866l9.477661 0l-9.482971 25.070866z" fill-rule="evenodd"/><path stroke="#000000" stroke-width="2.0" stroke-linejoin="round" stroke-linecap="butt" d="m122.72966 74.002625l9.482971 -25.070866l9.477661 0l-9.482971 25.070866z" fill-rule="evenodd"/><path fill="#ffffff" d="m141.69029 74.002625l9.482971 -25.070866l9.477661 0l-9.482971 25.070866z" fill-rule="evenodd"/><path stroke="#000000" stroke-width="2.0" stroke-linejoin="round" stroke-linecap="butt" d="m141.69029 74.002625l9.482971 -25.070866l9.477661 0l-9.482971 25.070866z" fill-rule="evenodd"/><path fill="#ffffff" d="m160.65092 74.002625l9.482956 -25.070866l9.477661 0l-9.482956 25.070866z" fill-rule="evenodd"/><path stroke="#000000" stroke-width="2.0" stroke-linejoin="round" stroke-linecap="butt" d="m160.65092 74.002625l9.482956 -25.070866l9.477661 0l-9.482956 25.070866z" fill-rule="evenodd"/><path fill="#ffffff" d="m179.61154 74.002625l9.482971 -25.070866l9.477661 0l-9.482971 25.070866z" fill-rule="evenodd"/><path stroke="#000000" stroke-width="2.0" stroke-linejoin="round" stroke-linecap="butt" d="m179.61154 74.002625l9.482971 -25.070866l9.477661 0l-9.482971 25.070866z" fill-rule="evenodd"/><path fill="#ffffff" d="m198.57217 74.002625l9.482971 -25.070866l9.477661 0l-9.482971 25.070866z" fill-rule="evenodd"/><path stroke="#000000" stroke-width="2.0" stroke-linejoin="round" stroke-linecap="butt" d="m198.57217 74.002625l9.482971 -25.070866l9.477661 0l-9.482971 25.070866z" fill-rule="evenodd"/><path fill="#d9d9d9" d="m8.863517 40.637794l23.716534 0l0 179.46457l-23.716534 0z" fill-rule="evenodd"/><path fill="#000000" d="m32.58005 46.774277l3.9055138 0l0 163.62206l-3.9055138 0z" fill-rule="evenodd"/><path fill="#000000" d="m219.43307 47.923885l3.9055023 0l0 162.4567l-3.9055023 0z" fill-rule="evenodd"/><path fill="#d9d9d9" d="m223.22844 40.637794l23.716537 0l0 179.46457l-23.716537 0z" fill-rule="evenodd"/><path fill="#0000ff" d="m0 95.2126l28.440945 0l0 65.5748l-28.440945 0z" fill-rule="evenodd"/><path stroke="#000000" stroke-width="3.0" stroke-linejoin="round" stroke-linecap="butt" d="m0 95.2126l28.440945 0l0 65.5748l-28.440945 0z" fill-rule="evenodd"/><path fill="#ff9900" d="m227.55905 95.2126l28.440948 0l0 65.5748l-28.440948 0z" fill-rule="evenodd"/><path stroke="#000000" stroke-width="3.0" stroke-linejoin="round" stroke-linecap="butt" d="m227.55905 95.2126l28.440948 0l0 65.5748l-28.440948 0z" fill-rule="evenodd"/></g></svg>